<svg width="365" height="281" viewBox="0 0 365 281" fill="none" xmlns="http://www.w3.org/2000/svg">
<path d="M364.162 1.11816V12.6269C351.299 14.1703 339.875 17.2668 332.105 28.3004C317.644 48.8345 323.249 99.1655 322.44 124.617C321.389 157.651 315.687 190.939 296.138 218.212C269.98 254.703 224.743 271.798 182.157 280.508C139.248 271.774 93.5253 254.299 67.5445 217.253C42.8382 182.024 41.5075 139.429 41.719 97.7207C41.8324 75.3688 45.5302 35.0405 24.6281 20.3805C17.4304 15.3323 8.58135 13.7974 0 12.6269V1.11817L15.0937 0.139327C71.4558 -1.10994 121.534 4.85075 135.632 67.6822C146.975 118.237 137.513 169.284 164.966 216.75C166.782 219.89 180.081 239.812 182.494 239.409C210.572 210.421 217.967 170.584 221.661 131.787C226.052 85.6802 222.978 30.2203 273.968 9.51651C301.971 -1.85374 334.511 -0.415062 364.162 1.11816ZM40.305 14.0679C39.9471 14.3905 44.9569 20.7214 45.4854 21.5929C61.9134 48.681 53.7429 106.321 56.6192 138.979C60.5475 183.584 77.3169 218.019 116.15 241.563C129.409 249.602 144.526 255.962 159.42 259.991L171.275 250.703C172.725 249.066 169.111 246.801 167.94 245.426C140.132 212.813 133.017 175.846 129.067 134.185C125.928 101.084 127.706 55.0001 99.0639 32.3007C82.4396 19.1256 60.9544 15.6379 40.305 14.0679ZM324.337 14.0679C300.105 15.7638 274.254 20.5341 257.636 39.708C234.568 66.3228 237.559 120.283 233.111 154.26C228.478 189.641 217.604 223.654 192.417 249.754C192.412 250.539 203.431 259.253 204.531 259.715C206.264 260.443 211.246 258.355 213.277 257.676C270.474 238.54 301.674 201.405 307.544 140.899C310.775 107.608 301.755 46.6117 320.113 19.6716L324.337 14.0679ZM181.697 260.116C181.4 260.193 177.209 263.88 177.035 264.134C176.688 264.638 176.298 264.511 177.035 265.108C180.638 266.102 184.234 266.732 187.589 264.62C186.54 263.623 182.873 259.808 181.697 260.116Z" fill="#C49332"/>
</svg>
